# xmcd
#
# Track frame offsets:
# 150
# 22907
# 34548
# 54673
# 71603
# 84878
# 109896
# 125490
# 137796
# 154398
#
# Disc length: 2301 seconds
#
# Revision: 1
# Processed by: cddbd v1.4PL0 Copyright (c) Steve Scherf et al.
# Submitted via: CedeCatalogueitor 2.5 http://usuarios.lycos.es/kakasboy
#
DISCID=8008fb0a
DTITLE=Nacha Guevara - Amor De Ciudad Grande
DYEAR=1996
DGENRE=
TTITLE0=Amor De Ciudad Grande
TTITLE1=Valsecito (Valsinha)
TTITLE2=Te Quiero
TTITLE3=Vos Lo Dijiste
TTITLE4=Todavía
TTITLE5=No Llores Por Mí, Argentina
TTITLE6=El Tiempo Pasado
TTITLE7=Ustedes Y Nosotros
TTITLE8=Si El Llanto Fuera Lluvia
TTITLE9=Yo Te Nombro
EXTD=Historia Del Pop Español
EXTT0=
EXTT1=
EXTT2=
EXTT3=
EXTT4=
EXTT5=
EXTT6=
EXTT7=
EXTT8=
EXTT9=
PLAYORDER=
